<?xml version="1.0" encoding="UTF-8" standalone="no"?>
<svg width="382px" height="49px" viewBox="0 0 382 49" version="1.1" xmlns="http://www.w3.org/2000/svg" xmlns:xlink="http://www.w3.org/1999/xlink">
    <!-- Generator: sketchtool 39.1 (31720) - http://www.bohemiancoding.com/sketch -->
    <title>941952D8-28BB-4BE1-B87F-3C109FCE7504</title>
    <desc>Created with sketchtool.</desc>
    <defs></defs>
    <g id="Page-1" stroke="none" stroke-width="1" fill="none" fill-rule="evenodd">
        <g id="전적검색_메인" transform="translate(-126.000000, -32.000000)">
            <g id="typo" transform="translate(126.000000, 31.433100)">
                <path d="M155.2183,32.6294 C155.2393,32.8154 155.2783,32.9724 155.3353,33.0534 C155.2703,32.7934 155.2633,32.6694 155.2183,32.6294" id="Fill-77" fill="#1D1D1D"></path>
                <path d="M1.7696,48.076 L25.8216,48.076 C33.2656,48.076 38.8796,42.471 38.8796,35.038 L38.8796,27.975 C38.8796,20.527 33.1576,14.692 25.8536,14.692 L4.8746,14.692 L4.8746,25.949 L25.8536,25.949 C26.9846,25.949 28.1256,26.575 28.1256,27.975 L28.1256,35.038 C28.1256,36.733 26.2056,36.819 25.8216,36.819 L1.7696,36.819 L1.7696,48.076 Z" id="Fill-78" fill="#FF0013"></path>
                <polygon id="Fill-79" fill="#FF0013" points="0.833 48.076 12.214 48.076 12.214 0.906 0.833 0.906"></polygon>
                <path d="M127.3064,48.076 L103.2544,48.076 C95.8104,48.076 90.1964,42.471 90.1964,35.038 L90.1964,27.975 C90.1964,20.527 95.9184,14.692 103.2224,14.692 L124.2014,14.692 L124.2014,25.949 L103.2224,25.949 C102.0914,25.949 100.9504,26.575 100.9504,27.975 L100.9504,35.038 C100.9504,36.733 102.8704,36.819 103.2544,36.819 L127.3064,36.819 L127.3064,48.076 Z" id="Fill-80" fill="#FF0013"></path>
                <polygon id="Fill-81" fill="#FF0013" points="116.862 48.076 128.243 48.076 128.243 0.906 116.862 0.906"></polygon>
                <path d="M76.8064,44.076 L67.7944,48.076 L57.7544,48.076 C50.3104,48.076 44.6964,42.471 44.6964,35.038 L44.6964,27.975 C44.6964,20.527 50.4184,14.692 57.7224,14.692 L68.4194,14.692 L78.7014,17.692 L78.7014,30.949 L68.4194,25.949 L57.7224,25.949 C56.5914,25.949 55.4504,26.575 55.4504,27.975 L55.4504,35.038 C55.4504,36.733 57.3704,36.819 57.7544,36.819 L68.6694,36.819 L81.8064,29.819 L76.8064,44.076 Z" id="Fill-82" fill="#FF0013"></path>
                <path d="M145.5571,46.5776 C145.5571,47.5446 144.7731,48.3296 143.8051,48.3296 L137.3461,48.3296 C136.3791,48.3296 135.5941,47.5446 135.5941,46.5776 L135.5941,40.1276 C135.5941,39.1596 136.3791,38.3756 137.3461,38.3756 L143.8051,38.3756 C144.7731,38.3756 145.5571,39.1596 145.5571,40.1276 L145.5571,46.5776 Z" id="Fill-83" fill="#1D1D1B"></path>
                <polygon id="Fill-84" fill="#FF0013" points="71.863 48.076 83.244 48.076 83.244 14.145 71.863 14.145"></polygon>
                <path d="M216.2313,47.837 L204.8893,47.771 L205.0253,24.307 C205.0253,16.746 211.2043,10.568 218.7983,10.568 L230.5583,10.568 C238.5943,10.568 244.1943,18.521 244.1943,25.659 L244.1943,47.804 L232.8513,47.804 L232.8513,25.659 C232.8513,23.723 231.2753,21.91 230.5583,21.91 L218.7983,21.91 C217.4583,21.91 216.3683,23 216.3683,24.34 L216.2313,47.837 Z" id="Fill-85" fill="#1D1D1B"></path>
                <polygon id="Fill-86" fill="#1D1D1B" points="370.458 48.245 381.8 48.245 381.8 9.897 370.458 9.897"></polygon>
                <polygon id="Fill-87" fill="#1D1D1B" points="342.496 48.245 353.838 48.245 353.838 9.897 342.496 9.897"></polygon>
                <polygon id="Fill-88" fill="#1D1D1B" points="348.166 34.434 376.129 34.434 376.129 23.092 348.166 23.092"></polygon>
                <polygon id="Fill-89" fill="#1D1D1B" points="249.266 21.91 290.649 21.91 290.649 10.568 249.266 10.568"></polygon>
                <polygon id="Fill-90" fill="#1D1D1B" points="264.286 48.137 275.628 48.137 275.628 15.604 264.286 15.604"></polygon>
                <polygon id="Fill-91" fill="#1D1D1B" points="208.275 40.645 240.808 40.645 240.808 29.303 208.275 29.303"></polygon>
                <path d="M334.6037,47.2278 L309.2367,47.2278 C301.3847,47.2278 295.4637,41.5808 295.4637,34.0908 L295.4637,23.9518 C295.4637,16.4468 301.4987,10.5678 309.2027,10.5678 L331.3287,10.5678 L331.3287,21.9098 L309.2027,21.9098 C308.0097,21.9098 306.8067,22.5418 306.8067,23.9518 L306.8067,34.0908 C306.8067,35.7988 308.8307,35.8858 309.2367,35.8858 L334.6037,35.8858 L334.6037,47.2278 Z" id="Fill-92" fill="#1D1D1B"></path>
                <path d="M182.2157,48.614 L166.2967,48.614 C158.7027,48.614 152.5247,42.436 152.5247,34.841 L152.5247,12.697 L163.8667,12.697 L163.8667,34.841 C163.8667,36.181 164.9567,37.272 166.2967,37.272 L182.2157,37.272 C183.5557,37.272 184.6467,36.181 184.6467,34.841 L184.6467,12.697 L195.9887,12.697 L195.9887,34.841 C195.9887,42.436 189.8107,48.614 182.2157,48.614" id="Fill-93" fill="#000000"></path>
                <path d="M157.8919,37.8134 C157.9109,37.9764 157.9449,38.1144 157.9949,38.1854 C157.9369,37.9574 157.9309,37.8484 157.8919,37.8134" id="Fill-94" fill="#1D1D1D"></path>
                <path d="M159.7025,44.5228 C159.7275,44.5308 159.7515,44.5368 159.7745,44.5328 C159.7405,44.5218 159.7205,44.5208 159.7025,44.5228" id="Fill-95" fill="#1D1D1D"></path>
                <path d="M197.7878,31.2422 L197.7678,31.0352 C197.7668,31.1092 197.7718,31.1822 197.7878,31.2422" id="Fill-96" fill="#1D1D1D"></path>
                <polygon id="Fill-97" fill="#1D1D1B" points="169.4967 42.6485 169.2937 16.3775 179.0167 16.3025 179.2187 42.5745"></polygon>
            </g>
        </g>
    </g>
</svg>